# xmcd CD database file
#
# Track frame offsets:
#	150
#	16115
#	40829
#	60030
#	79748
#	99065
#	114986
#
# Disc length: 1804 seconds
#
# Revision: 0
# Processed by: cddbd v1.5.2PL0 Copyright (c) Steve Scherf et al.
# Submitted via: CDex 1.77
#
DISCID=3a070a07
DTITLE=Michael Haggins - Daybreak
DYEAR=2004
DGENRE=Jazz
TTITLE0=Be Thankful (Instrumental)
TTITLE1=Daybreak
TTITLE2=Diamond Eyes (Instrumental)
TTITLE3=Norine
TTITLE4=First Breath
TTITLE5=Be Thankful (Vocals)
TTITLE6=Diamond Eyes (Vocals)
EXTD=YEAR: 2004
EXTT0=
EXTT1=
EXTT2=
EXTT3=
EXTT4=
EXTT5=
EXTT6=
PLAYORDER=
